# Blender 4.2.3 LTS
# www.blender.org
mtllib kettle.mtl
o Cube
v 0.411317 2.000000 -0.411317
v 0.411317 0.000000 -0.411317
v 0.411317 2.000000 0.411317
v 0.411317 0.000000 0.411317
v -0.411317 2.000000 -0.411317
v -0.411317 0.000000 -0.411317
v -0.411317 2.000000 0.411317
v -0.411317 0.000000 0.411317
vn -0.0000 1.0000 -0.0000
vn -0.0000 -0.0000 1.0000
vn -1.0000 -0.0000 -0.0000
vn -0.0000 -1.0000 -0.0000
vn 1.0000 -0.0000 -0.0000
vn -0.0000 -0.0000 -1.0000
vt 0.500417 0.991982
vt 0.500417 1.978369
vt 0.250085 1.978369
vt 0.250085 0.991982
vt 0.250085 0.005596
vt -0.000248 0.991982
vt -0.000248 0.005596
vt 1.001082 0.005596
vt 1.001082 0.991982
vt 0.750750 0.991982
vt 0.750749 0.005596
vt 0.500417 -0.980790
vt 0.500417 0.005596
vt 0.250085 -0.980790
s 0
usemtl Material
f 1/1/1 5/2/1 7/3/1 3/4/1
f 4/5/2 3/4/2 7/6/2 8/7/2
f 8/8/3 7/9/3 5/10/3 6/11/3
f 6/12/4 2/13/4 4/5/4 8/14/4
f 2/13/5 1/1/5 3/4/5 4/5/5
f 6/11/6 5/10/6 1/1/6 2/13/6
